<?xml version="1.0" encoding="utf-8"?>
<!-- Generator: Adobe Illustrator 24.2.0, SVG Export Plug-In . SVG Version: 6.00 Build 0)  -->
<svg version="1.1" id="Capa_1" xmlns="http://www.w3.org/2000/svg" xmlns:xlink="http://www.w3.org/1999/xlink" x="0px" y="0px"
	 viewBox="0 0 130 130" style="enable-background:new 0 0 130 130;" xml:space="preserve">
<style type="text/css">
	.st0{fill:#841DFF;}
	.st1{fill:#AFC7B9;}
	.st2{fill:none;stroke:#000000;stroke-miterlimit:10;}
	.st3{fill:#FFE1C9;}
	.st4{fill:#FAC7B4;}
	.st5{fill:#FCA89D;}
	.st6{fill:#998B82;}
	.st7{fill:#1DB3FF;}
</style>
<path class="st6" d="M65,124L65,124C32.42,124,6,97.58,6,65v0C6,32.42,32.42,6,65,6h0c32.58,0,59,26.42,59,59v0
	C124,97.58,97.58,124,65,124z"/>
<g>
	<rect x="41.17" y="15.92" class="st1" width="46" height="91"/>
	<g>
		<path d="M64.26,35.23l5.91-12.02h9.96l-10.1,17.92L80.4,59.36H70.35l-6.08-12.24l-6.08,12.24H48.15L58.5,41.14L48.42,23.21h9.93
			L64.26,35.23z"/>
	</g>
	<g>
		<path d="M57.46,93.66h15.17v6.7H48.75V64.21h8.71V93.66z"/>
	</g>
</g>
</svg>
