<?xml version="1.0" encoding="utf-8"?>
<!-- Generator: Adobe Illustrator 24.2.0, SVG Export Plug-In . SVG Version: 6.00 Build 0)  -->
<svg version="1.1" id="Capa_1" xmlns="http://www.w3.org/2000/svg" xmlns:xlink="http://www.w3.org/1999/xlink" x="0px" y="0px"
	 viewBox="0 0 130 130" style="enable-background:new 0 0 130 130;" xml:space="preserve">
<style type="text/css">
	.st0{fill:#998B82;}
	.st1{fill:#841DFF;}
	.st2{fill:#AFC7B9;}
	.st3{fill:none;stroke:#000000;stroke-miterlimit:10;}
	.st4{fill:#FFE1C9;}
	.st5{fill:#FAC7B4;}
	.st6{fill:#FCA89D;}
	.st7{fill:#1DB3FF;}
</style>
<path class="st0" d="M65,124L65,124C32.42,124,6,97.58,6,65v0C6,32.42,32.42,6,65,6h0c32.58,0,59,26.42,59,59v0
	C124,97.58,97.58,124,65,124z"/>
<g>
	<rect x="38.43" y="15.97" class="st2" width="50.66" height="91"/>
	<g>
		<path d="M45.21,59.41L60.76,37.8l-0.05,7.17L45.76,23.82H57.1l9.56,13.78l-4.83,0.05l9.41-13.83h10.88L67.17,44.56v-7.12
			l15.76,21.96H71.34l-9.71-14.49h4.63L56.7,59.41H45.21z"/>
	</g>
	<g>
		<path d="M46.83,100.41V64.82H56.9v27.61h16.98v7.98H46.83z"/>
	</g>
</g>
</svg>
