<?xml version="1.0" encoding="utf-8"?>
<!-- Generator: Adobe Illustrator 24.2.0, SVG Export Plug-In . SVG Version: 6.00 Build 0)  -->
<svg version="1.1" id="Capa_1" xmlns="http://www.w3.org/2000/svg" xmlns:xlink="http://www.w3.org/1999/xlink" x="0px" y="0px"
	 viewBox="0 0 223 177" style="enable-background:new 0 0 223 177;" xml:space="preserve">
<style type="text/css">
	.st0{fill:#998B82;}
	.st1{fill:#841DFF;}
	.st2{fill:#AFC7B9;}
	.st3{fill:none;stroke:#000000;stroke-miterlimit:10;}
	.st4{fill:#FFE1C9;}
	.st5{fill:#FAC7B4;}
	.st6{fill:#FCA89D;}
	.st7{fill:#1DB3FF;}
</style>
<rect x="11.34" y="11.71" class="st2" width="50.66" height="91"/>
<g>
	<path d="M18.12,55.15l15.56-21.61l-0.05,7.17L18.67,19.56h11.34l9.56,13.78l-4.83,0.05l9.41-13.83h10.88L40.08,40.3v-7.12
		l15.76,21.96H44.25l-9.71-14.49h4.63l-9.56,14.49H18.12z"/>
	<path d="M69.87,23.02c-0.95,0-1.74-0.3-2.36-0.91c-0.63-0.61-0.94-1.36-0.94-2.24c0-0.91,0.31-1.68,0.94-2.29
		c0.63-0.61,1.41-0.92,2.36-0.92c0.95,0,1.74,0.3,2.36,0.89c0.63,0.59,0.94,1.33,0.94,2.21c0,0.92-0.31,1.69-0.92,2.31
		C71.65,22.7,70.86,23.02,69.87,23.02z M67.43,55.15V28.2h4.88v26.95H67.43z"/>
	<path d="M112.28,27.95c2.17,0,4.08,0.42,5.75,1.27c1.66,0.85,2.96,2.14,3.89,3.86c0.93,1.73,1.4,3.92,1.4,6.56v15.51h-4.88V40.2
		c0-2.61-0.61-4.58-1.83-5.9c-1.22-1.32-2.93-1.98-5.14-1.98c-1.63,0-3.05,0.34-4.27,1.02s-2.16,1.68-2.82,3
		c-0.66,1.32-0.99,2.97-0.99,4.93v13.88H98.5V40.2c0-2.61-0.6-4.58-1.8-5.9c-1.2-1.32-2.92-1.98-5.16-1.98c-1.59,0-3,0.34-4.22,1.02
		s-2.17,1.68-2.85,3c-0.68,1.32-1.02,2.97-1.02,4.93v13.88h-4.88V28.2h4.68v7.17l-0.76-1.83c0.85-1.76,2.15-3.13,3.92-4.12
		c1.76-0.98,3.81-1.47,6.15-1.47c2.58,0,4.8,0.64,6.66,1.91c1.86,1.27,3.08,3.2,3.66,5.77l-1.98-0.81c0.81-2.07,2.24-3.73,4.27-4.98
		C107.19,28.58,109.56,27.95,112.28,27.95z"/>
	<path d="M141.26,55.45c-2.88,0-5.41-0.59-7.6-1.78c-2.19-1.19-3.88-2.81-5.08-4.88c-1.2-2.07-1.81-4.44-1.81-7.12
		s0.58-5.05,1.75-7.12s2.78-3.69,4.83-4.86c2.05-1.17,4.36-1.75,6.94-1.75c2.61,0,4.91,0.58,6.91,1.73c2,1.15,3.57,2.77,4.7,4.86
		c1.14,2.08,1.7,4.52,1.7,7.3c0,0.2-0.01,0.44-0.03,0.71c-0.02,0.27-0.04,0.53-0.08,0.76h-22.93v-3.51h20.39l-1.98,1.22
		c0.03-1.73-0.32-3.27-1.07-4.63c-0.75-1.35-1.77-2.42-3.08-3.18c-1.31-0.76-2.82-1.14-4.55-1.14c-1.7,0-3.2,0.38-4.52,1.14
		c-1.32,0.76-2.36,1.83-3.1,3.2c-0.75,1.37-1.12,2.94-1.12,4.7v0.81c0,1.8,0.42,3.4,1.25,4.8s1.99,2.5,3.48,3.28
		c1.49,0.78,3.2,1.17,5.14,1.17c1.59,0,3.04-0.27,4.35-0.81c1.3-0.54,2.45-1.36,3.43-2.44l2.69,3.15c-1.22,1.42-2.74,2.51-4.55,3.25
		C145.52,55.08,143.49,55.45,141.26,55.45z"/>
	<path d="M171.71,27.95c2.2,0,4.14,0.42,5.82,1.27c1.68,0.85,2.99,2.14,3.94,3.86c0.95,1.73,1.42,3.92,1.42,6.56v15.51h-4.88V40.2
		c0-2.61-0.64-4.58-1.91-5.9c-1.27-1.32-3.06-1.98-5.36-1.98c-1.73,0-3.24,0.34-4.52,1.02c-1.29,0.68-2.28,1.68-2.97,3
		c-0.69,1.32-1.04,2.97-1.04,4.93v13.88h-4.88V28.2H162v7.27l-0.76-1.93c0.88-1.76,2.24-3.13,4.07-4.12
		C167.14,28.44,169.27,27.95,171.71,27.95z"/>
	<path d="M196.78,55.45c-2,0-3.75-0.34-5.26-1.02c-1.51-0.68-2.67-1.62-3.48-2.82s-1.22-2.57-1.22-4.09c0-1.46,0.35-2.78,1.04-3.97
		c0.69-1.19,1.83-2.13,3.41-2.85c1.58-0.71,3.7-1.07,6.38-1.07h8.54v3.51h-8.34c-2.44,0-4.08,0.41-4.93,1.22
		c-0.85,0.81-1.27,1.8-1.27,2.95c0,1.32,0.53,2.38,1.58,3.18c1.05,0.8,2.51,1.2,4.37,1.2c1.83,0,3.43-0.41,4.8-1.22
		c1.37-0.81,2.36-2,2.97-3.56l0.97,3.36c-0.64,1.59-1.78,2.86-3.41,3.79C201.3,54.99,199.25,55.45,196.78,55.45z M205.62,55.15
		v-5.69l-0.25-1.07v-9.71c0-2.07-0.6-3.67-1.81-4.8c-1.2-1.13-3.01-1.7-5.41-1.7c-1.59,0-3.15,0.26-4.68,0.79
		c-1.53,0.53-2.81,1.23-3.86,2.11l-2.03-3.66c1.39-1.12,3.06-1.97,5.01-2.57c1.95-0.59,3.99-0.89,6.13-0.89
		c3.69,0,6.54,0.9,8.54,2.7c2,1.8,3,4.54,3,8.24v16.27H205.62z"/>
</g>
<g>
	<path d="M19.74,96.15V60.56h10.07v27.61h16.98v7.98H19.74z"/>
	<path d="M76.99,96.45c-2,0-3.75-0.34-5.26-1.02c-1.51-0.68-2.67-1.62-3.48-2.82s-1.22-2.57-1.22-4.09c0-1.46,0.35-2.78,1.04-3.97
		c0.69-1.19,1.83-2.14,3.41-2.85s3.7-1.07,6.38-1.07h8.54v3.51h-8.34c-2.44,0-4.08,0.41-4.93,1.22c-0.85,0.81-1.27,1.8-1.27,2.95
		c0,1.32,0.53,2.38,1.58,3.18c1.05,0.8,2.51,1.2,4.37,1.2c1.83,0,3.43-0.41,4.8-1.22c1.37-0.81,2.36-2,2.97-3.56l0.97,3.36
		c-0.64,1.59-1.78,2.86-3.41,3.79C81.52,95.99,79.47,96.45,76.99,96.45z M85.84,96.15v-5.69l-0.25-1.07v-9.71
		c0-2.07-0.6-3.67-1.81-4.8c-1.2-1.14-3.01-1.7-5.41-1.7c-1.59,0-3.15,0.26-4.68,0.79s-2.81,1.23-3.86,2.11l-2.03-3.66
		c1.39-1.12,3.06-1.97,5.01-2.57c1.95-0.59,3.99-0.89,6.13-0.89c3.69,0,6.54,0.9,8.54,2.7c2,1.8,3,4.54,3,8.24v16.27H85.84z"/>
	<path d="M109.68,96.15V69.2h4.68v7.32l-0.46-1.83c0.75-1.86,2-3.29,3.76-4.27c1.76-0.98,3.93-1.47,6.51-1.47v4.73
		c-0.2-0.03-0.4-0.05-0.58-0.05c-0.19,0-0.36,0-0.53,0c-2.61,0-4.68,0.78-6.2,2.34c-1.52,1.56-2.29,3.81-2.29,6.76v13.42H109.68z"/>
	<path d="M152.29,95.03c-2.61,0-4.94-0.55-6.99-1.65c-2.05-1.1-3.68-2.64-4.88-4.6c-1.2-1.97-1.81-4.24-1.81-6.81
		c0-2.61,0.6-4.89,1.81-6.84c1.2-1.95,2.83-3.46,4.88-4.55c2.05-1.08,4.38-1.63,6.99-1.63c2.3,0,4.41,0.47,6.3,1.4
		c1.9,0.93,3.41,2.36,4.55,4.3c1.14,1.93,1.7,4.37,1.7,7.32c0,2.92-0.57,5.34-1.7,7.27c-1.14,1.93-2.65,3.38-4.55,4.35
		C156.69,94.55,154.59,95.03,152.29,95.03z M152.9,106.32c-2.47,0-4.87-0.35-7.19-1.04c-2.32-0.7-4.21-1.69-5.67-2.97l2.34-3.76
		c1.25,1.08,2.8,1.94,4.63,2.57c1.83,0.63,3.75,0.94,5.75,0.94c3.19,0,5.52-0.75,7.02-2.24c1.49-1.49,2.24-3.76,2.24-6.81V87.3
		l0.51-5.34l-0.25-5.39V69.2h4.63v23.29c0,4.75-1.19,8.24-3.56,10.47C160.95,105.2,157.47,106.32,152.9,106.32z M152.85,90.76
		c1.8,0,3.39-0.37,4.78-1.12c1.39-0.75,2.48-1.78,3.28-3.1c0.8-1.32,1.19-2.85,1.19-4.58c0-1.73-0.4-3.25-1.19-4.58
		c-0.8-1.32-1.89-2.35-3.28-3.08c-1.39-0.73-2.98-1.09-4.78-1.09c-1.8,0-3.4,0.36-4.8,1.09c-1.41,0.73-2.51,1.75-3.3,3.08
		c-0.8,1.32-1.19,2.85-1.19,4.58c0,1.73,0.4,3.25,1.19,4.58c0.8,1.32,1.9,2.36,3.3,3.1C149.45,90.39,151.05,90.76,152.85,90.76z"/>
	<path d="M195.86,96.45c-2.71,0-5.12-0.59-7.22-1.78c-2.1-1.19-3.76-2.82-4.98-4.91c-1.22-2.08-1.83-4.45-1.83-7.09
		c0-2.68,0.61-5.05,1.83-7.12s2.88-3.69,4.98-4.86c2.1-1.17,4.51-1.75,7.22-1.75c2.68,0,5.08,0.58,7.19,1.75
		c2.12,1.17,3.78,2.78,4.98,4.83c1.2,2.05,1.8,4.43,1.8,7.14c0,2.68-0.6,5.05-1.8,7.12c-1.2,2.07-2.86,3.7-4.98,4.88
		C200.94,95.86,198.54,96.45,195.86,96.45z M195.86,92.18c1.73,0,3.28-0.39,4.65-1.17c1.37-0.78,2.45-1.89,3.23-3.33
		c0.78-1.44,1.17-3.11,1.17-5.01c0-1.93-0.39-3.6-1.17-5.01c-0.78-1.41-1.86-2.5-3.23-3.28c-1.37-0.78-2.92-1.17-4.65-1.17
		c-1.73,0-3.27,0.39-4.63,1.17c-1.36,0.78-2.44,1.87-3.25,3.28c-0.81,1.41-1.22,3.08-1.22,5.01c0,1.9,0.41,3.57,1.22,5.01
		s1.9,2.55,3.25,3.33C192.59,91.79,194.13,92.18,195.86,92.18z"/>
</g>
<g>
	<path d="M33.47,155.57v-36.15h11.12c3.18,0,6.02,0.72,8.53,2.15c2.51,1.43,4.46,3.47,5.87,6.11c1.41,2.64,2.11,5.64,2.11,9v1.66
		c0,3.36-0.69,6.35-2.07,8.96c-1.38,2.62-3.33,4.64-5.85,6.08c-2.52,1.44-5.35,2.17-8.52,2.18H33.47z M40.92,125.45v24.13h3.6
		c2.91,0,5.14-0.95,6.68-2.85s2.33-4.63,2.36-8.17v-1.91c0-3.67-0.76-6.46-2.28-8.35c-1.52-1.89-3.75-2.84-6.68-2.84H40.92z"/>
	<path d="M95.69,156.06c-3.94,0-7.15-1.21-9.62-3.62c-2.47-2.42-3.71-5.64-3.71-9.66v-0.7c0-2.7,0.52-5.11,1.56-7.24
		c1.04-2.13,2.52-3.76,4.43-4.92c1.91-1.15,4.09-1.73,6.54-1.73c3.67,0,6.57,1.16,8.68,3.48c2.11,2.32,3.17,5.6,3.17,9.86v2.93
		h-17.1c0.23,1.75,0.93,3.16,2.1,4.22c1.17,1.06,2.64,1.59,4.43,1.59c2.76,0,4.92-1,6.48-3l3.52,3.95
		c-1.08,1.52-2.53,2.71-4.37,3.56S97.93,156.06,95.69,156.06z M94.88,133.99c-1.42,0-2.58,0.48-3.46,1.45
		c-0.89,0.96-1.45,2.34-1.7,4.14h9.98v-0.57c-0.03-1.6-0.46-2.83-1.29-3.7C97.57,134.43,96.4,133.99,94.88,133.99z"/>
	<path d="M137.83,146.8l4.99-18.1h7.5l-9.06,26.86h-6.85l-9.06-26.86h7.5L137.83,146.8z"/>
	<path d="M185.31,148.14c0-0.88-0.43-1.57-1.3-2.07c-0.87-0.5-2.26-0.96-4.18-1.35c-6.39-1.34-9.58-4.06-9.58-8.14
		c0-2.38,0.99-4.37,2.97-5.97c1.98-1.6,4.56-2.4,7.76-2.4c3.41,0,6.14,0.8,8.18,2.41c2.04,1.61,3.07,3.69,3.07,6.26h-7.17
		c0-1.03-0.33-1.87-0.99-2.54c-0.66-0.67-1.7-1.01-3.1-1.01c-1.21,0-2.14,0.27-2.81,0.82s-0.99,1.24-0.99,2.08
		c0,0.79,0.38,1.44,1.13,1.92s2.02,0.91,3.81,1.27c1.79,0.36,3.29,0.76,4.52,1.2c3.79,1.39,5.69,3.8,5.69,7.22
		c0,2.45-1.05,4.43-3.15,5.95s-4.82,2.27-8.14,2.27c-2.25,0-4.25-0.4-6-1.2s-3.12-1.9-4.11-3.3c-0.99-1.4-1.49-2.91-1.49-4.53h6.8
		c0.07,1.27,0.54,2.25,1.42,2.93c0.88,0.68,2.05,1.02,3.53,1.02c1.37,0,2.41-0.26,3.12-0.78
		C184.95,149.67,185.31,148.99,185.31,148.14z"/>
</g>
<g>
	<path class="st0" d="M30.47,154.57v-36.15h11.12c3.18,0,6.02,0.72,8.53,2.15c2.51,1.43,4.46,3.47,5.87,6.11
		c1.41,2.64,2.11,5.64,2.11,9v1.66c0,3.36-0.69,6.35-2.07,8.96c-1.38,2.62-3.33,4.64-5.85,6.08c-2.52,1.44-5.35,2.17-8.52,2.18
		H30.47z M37.92,124.45v24.13h3.6c2.91,0,5.14-0.95,6.68-2.85s2.33-4.63,2.36-8.17v-1.91c0-3.67-0.76-6.46-2.28-8.35
		c-1.52-1.89-3.75-2.84-6.68-2.84H37.92z"/>
	<path class="st0" d="M92.69,155.06c-3.94,0-7.15-1.21-9.62-3.62c-2.47-2.42-3.71-5.64-3.71-9.66v-0.7c0-2.7,0.52-5.11,1.56-7.24
		c1.04-2.13,2.52-3.76,4.43-4.92c1.91-1.15,4.09-1.73,6.54-1.73c3.67,0,6.57,1.16,8.68,3.48c2.11,2.32,3.17,5.6,3.17,9.86v2.93
		h-17.1c0.23,1.75,0.93,3.16,2.1,4.22c1.17,1.06,2.64,1.59,4.43,1.59c2.76,0,4.92-1,6.48-3l3.52,3.95
		c-1.08,1.52-2.53,2.71-4.37,3.56S94.93,155.06,92.69,155.06z M91.88,132.99c-1.42,0-2.58,0.48-3.46,1.45
		c-0.89,0.96-1.45,2.34-1.7,4.14h9.98v-0.57c-0.03-1.6-0.46-2.83-1.29-3.7C94.57,133.43,93.4,132.99,91.88,132.99z"/>
	<path class="st0" d="M134.83,145.8l4.99-18.1h7.5l-9.06,26.86h-6.85l-9.06-26.86h7.5L134.83,145.8z"/>
	<path class="st0" d="M182.31,147.14c0-0.88-0.43-1.57-1.3-2.07c-0.87-0.5-2.26-0.96-4.18-1.35c-6.39-1.34-9.58-4.06-9.58-8.14
		c0-2.38,0.99-4.37,2.97-5.97c1.98-1.6,4.56-2.4,7.76-2.4c3.41,0,6.14,0.8,8.18,2.41c2.04,1.61,3.07,3.69,3.07,6.26h-7.17
		c0-1.03-0.33-1.87-0.99-2.54c-0.66-0.67-1.7-1.01-3.1-1.01c-1.21,0-2.14,0.27-2.81,0.82s-0.99,1.24-0.99,2.08
		c0,0.79,0.38,1.44,1.13,1.92s2.02,0.91,3.81,1.27c1.79,0.36,3.29,0.76,4.52,1.2c3.79,1.39,5.69,3.8,5.69,7.22
		c0,2.45-1.05,4.43-3.15,5.95s-4.82,2.27-8.14,2.27c-2.25,0-4.25-0.4-6-1.2s-3.12-1.9-4.11-3.3c-0.99-1.4-1.49-2.91-1.49-4.53h6.8
		c0.07,1.27,0.54,2.25,1.42,2.93c0.88,0.68,2.05,1.02,3.53,1.02c1.37,0,2.41-0.26,3.12-0.78
		C181.95,148.67,182.31,147.99,182.31,147.14z"/>
</g>
<rect x="11.84" y="110.21" class="st3" width="198" height="55"/>
</svg>
