<?xml version="1.0" encoding="utf-8"?>
<!-- Generator: Adobe Illustrator 24.2.0, SVG Export Plug-In . SVG Version: 6.00 Build 0)  -->
<svg version="1.1" id="Capa_1" xmlns="http://www.w3.org/2000/svg" xmlns:xlink="http://www.w3.org/1999/xlink" x="0px" y="0px"
	 viewBox="0 0 223 177" style="enable-background:new 0 0 223 177;" xml:space="preserve">
<style type="text/css">
	.st0{fill:#841DFF;}
	.st1{fill:#AFC7B9;}
	.st2{fill:none;stroke:#000000;stroke-miterlimit:10;}
	.st3{fill:#FFE1C9;}
	.st4{fill:#FAC7B4;}
	.st5{fill:#FCA89D;}
	.st6{fill:#998B82;}
	.st7{fill:#1DB3FF;}
</style>
<g>
	<rect x="11.34" y="11.71" class="st1" width="46" height="91"/>
	<g>
		<path d="M34.43,31.02L40.34,19h9.96l-10.1,17.92l10.38,18.22H40.51l-6.08-12.24l-6.08,12.24H18.32l10.35-18.22L18.59,19h9.93
			L34.43,31.02z"/>
		<path d="M60.07,21.36c0-1.19,0.43-2.17,1.29-2.93s1.98-1.14,3.35-1.14c1.37,0,2.49,0.38,3.35,1.14c0.86,0.76,1.29,1.74,1.29,2.93
			s-0.43,2.17-1.29,2.93c-0.86,0.76-1.98,1.14-3.35,1.14c-1.37,0-2.49-0.38-3.35-1.14C60.5,23.53,60.07,22.55,60.07,21.36z
			 M68.95,55.15h-8.39V28.29h8.39V55.15z"/>
		<path d="M85.06,28.29l0.27,3.15c1.9-2.43,4.46-3.65,7.67-3.65c3.39,0,5.69,1.35,6.88,4.05c1.82-2.7,4.45-4.05,7.89-4.05
			c5.44,0,8.24,3.29,8.39,9.88v17.48h-8.39V38.19c0-1.37-0.23-2.38-0.7-3s-1.31-0.94-2.53-0.94c-1.66,0-2.89,0.74-3.7,2.21
			l0.02,0.35v18.35h-8.39V38.24c0-1.41-0.22-2.42-0.67-3.05c-0.45-0.63-1.3-0.94-2.56-0.94c-1.61,0-2.83,0.74-3.67,2.21v18.69h-8.37
			V28.29H85.06z"/>
		<path d="M137,55.65c-4.12,0-7.46-1.23-10-3.69c-2.55-2.46-3.82-5.66-3.82-9.6v-0.7c0-2.75,0.51-5.17,1.53-7.27
			c1.02-2.1,2.5-3.73,4.46-4.88c1.95-1.15,4.27-1.72,6.95-1.72c3.77,0,6.75,1.17,8.94,3.51c2.18,2.34,3.28,5.61,3.28,9.79v3.25
			h-16.63c0.3,1.51,0.95,2.69,1.96,3.55c1.01,0.86,2.32,1.29,3.92,1.29c2.65,0,4.72-0.93,6.21-2.78l3.82,4.52
			c-1.04,1.44-2.52,2.59-4.43,3.44C141.25,55.22,139.2,55.65,137,55.65z M136.05,34.25c-2.45,0-3.91,1.62-4.37,4.87h8.44v-0.65
			c0.03-1.34-0.31-2.38-1.02-3.12C138.39,34.61,137.38,34.25,136.05,34.25z"/>
		<path d="M162.41,28.29l0.27,3.15c1.85-2.43,4.41-3.65,7.67-3.65c2.8,0,4.89,0.84,6.27,2.51s2.1,4.19,2.15,7.55v17.3h-8.39V38.19
			c0-1.36-0.27-2.35-0.82-2.99c-0.55-0.64-1.54-0.96-2.98-0.96c-1.64,0-2.85,0.64-3.65,1.94v18.97h-8.37V28.29H162.41z"/>
		<path d="M201.59,55.15c-0.3-0.55-0.56-1.35-0.79-2.41c-1.54,1.94-3.69,2.91-6.46,2.91c-2.53,0-4.68-0.77-6.45-2.3
			c-1.77-1.53-2.66-3.46-2.66-5.77c0-2.91,1.08-5.11,3.23-6.6c2.15-1.49,5.28-2.23,9.38-2.23h2.58v-1.42c0-2.48-1.07-3.72-3.2-3.72
			c-1.99,0-2.98,0.98-2.98,2.94h-8.37c0-2.59,1.1-4.7,3.31-6.32c2.21-1.62,5.03-2.43,8.45-2.43c3.43,0,6.13,0.84,8.12,2.51
			c1.99,1.67,3,3.96,3.05,6.88v11.89c0.03,2.47,0.41,4.35,1.14,5.66v0.42H201.59z M196.35,49.69c1.04,0,1.91-0.22,2.59-0.67
			c0.69-0.45,1.18-0.95,1.48-1.52v-4.29h-2.43c-2.91,0-4.37,1.31-4.37,3.92c0,0.76,0.26,1.38,0.77,1.85
			C194.9,49.45,195.55,49.69,196.35,49.69z"/>
	</g>
	<g>
		<path d="M27.63,89.45H42.8v6.7H18.91V60h8.71V89.45z"/>
		<path d="M76.47,96.15c-0.3-0.55-0.56-1.35-0.79-2.41c-1.54,1.94-3.69,2.91-6.46,2.91c-2.53,0-4.68-0.77-6.45-2.3
			c-1.77-1.53-2.66-3.45-2.66-5.77c0-2.91,1.08-5.11,3.23-6.6c2.15-1.49,5.28-2.23,9.38-2.23h2.58v-1.42c0-2.48-1.07-3.72-3.2-3.72
			c-1.99,0-2.98,0.98-2.98,2.94h-8.37c0-2.6,1.1-4.7,3.31-6.32s5.03-2.43,8.45-2.43c3.43,0,6.13,0.84,8.12,2.51
			c1.99,1.67,3,3.96,3.05,6.88v11.89c0.03,2.47,0.41,4.35,1.14,5.66v0.42H76.47z M71.23,90.69c1.04,0,1.91-0.22,2.59-0.67
			c0.69-0.45,1.18-0.95,1.48-1.51v-4.29h-2.43c-2.91,0-4.37,1.31-4.37,3.92c0,0.76,0.26,1.38,0.77,1.85
			C69.78,90.45,70.44,90.69,71.23,90.69z"/>
		<path d="M118.81,76.86l-2.76-0.2c-2.63,0-4.32,0.83-5.06,2.48v17.01h-8.37V69.29h7.84l0.27,3.45c1.41-2.63,3.37-3.95,5.88-3.95
			c0.89,0,1.67,0.1,2.33,0.3L118.81,76.86z"/>
		<path d="M137.66,82.52c0-2.71,0.45-5.11,1.34-7.2c0.89-2.09,2.18-3.7,3.85-4.83c1.67-1.13,3.62-1.7,5.83-1.7
			c2.8,0,4.98,0.94,6.55,2.83l0.3-2.33h7.6v25.84c0,2.37-0.55,4.42-1.65,6.17s-2.69,3.09-4.78,4.02c-2.09,0.93-4.5,1.4-7.25,1.4
			c-1.97,0-3.88-0.37-5.72-1.12c-1.85-0.75-3.26-1.71-4.23-2.9l3.5-4.92c1.56,1.84,3.61,2.76,6.16,2.76c3.71,0,5.56-1.9,5.56-5.71
			v-0.84c-1.61,1.77-3.63,2.66-6.08,2.66c-3.28,0-5.93-1.25-7.94-3.76c-2.02-2.51-3.03-5.86-3.03-10.07V82.52z M146.05,83.04
			c0,2.2,0.41,3.94,1.24,5.23s1.99,1.92,3.48,1.92c1.8,0,3.12-0.6,3.95-1.81v-11.3c-0.81-1.22-2.11-1.84-3.9-1.84
			c-1.49,0-2.66,0.67-3.5,2C146.47,78.58,146.05,80.51,146.05,83.04z"/>
		<path d="M184.12,82.47c0-2.68,0.52-5.07,1.56-7.16s2.54-3.7,4.49-4.83c1.95-1.13,4.25-1.69,6.88-1.69c4.02,0,7.19,1.25,9.51,3.74
			c2.32,2.49,3.48,5.88,3.48,10.17v0.3c0,4.19-1.16,7.51-3.49,9.97c-2.33,2.46-5.47,3.69-9.45,3.69c-3.82,0-6.89-1.15-9.21-3.44
			c-2.32-2.29-3.57-5.4-3.75-9.32L184.12,82.47z M192.48,82.99c0,2.48,0.39,4.3,1.17,5.46c0.78,1.16,1.93,1.74,3.45,1.74
			c2.98,0,4.5-2.29,4.57-6.88v-0.84c0-4.82-1.54-7.22-4.62-7.22c-2.8,0-4.31,2.08-4.54,6.23L192.48,82.99z"/>
	</g>
	<g>
		<path d="M33.47,155.57v-36.15h11.12c3.18,0,6.02,0.72,8.53,2.15s4.46,3.47,5.87,6.11s2.11,5.64,2.11,9v1.66
			c0,3.36-0.69,6.35-2.07,8.96c-1.38,2.62-3.33,4.64-5.85,6.08c-2.52,1.44-5.35,2.17-8.52,2.18H33.47z M40.92,125.45v24.13h3.6
			c2.91,0,5.14-0.95,6.68-2.85c1.54-1.9,2.32-4.63,2.36-8.17v-1.91c0-3.67-0.76-6.46-2.28-8.35c-1.52-1.89-3.75-2.84-6.68-2.84
			H40.92z"/>
		<path d="M95.69,156.06c-3.94,0-7.15-1.21-9.62-3.62c-2.47-2.42-3.71-5.64-3.71-9.66v-0.7c0-2.7,0.52-5.11,1.56-7.24
			c1.04-2.13,2.52-3.76,4.43-4.92s4.09-1.73,6.54-1.73c3.67,0,6.57,1.16,8.68,3.48c2.11,2.32,3.17,5.6,3.17,9.86v2.93h-17.1
			c0.23,1.75,0.93,3.16,2.1,4.22c1.17,1.06,2.64,1.59,4.43,1.59c2.76,0,4.92-1,6.48-3l3.52,3.95c-1.08,1.52-2.53,2.71-4.37,3.56
			C99.96,155.64,97.93,156.06,95.69,156.06z M94.87,133.99c-1.42,0-2.58,0.48-3.46,1.45c-0.89,0.96-1.45,2.34-1.7,4.14h9.98v-0.57
			c-0.03-1.6-0.46-2.83-1.29-3.7S96.4,133.99,94.87,133.99z"/>
		<path d="M137.83,146.8l4.99-18.1h7.5l-9.06,26.86h-6.85l-9.06-26.86h7.5L137.83,146.8z"/>
		<path d="M185.31,148.14c0-0.88-0.43-1.57-1.3-2.07c-0.87-0.5-2.26-0.96-4.18-1.35c-6.39-1.34-9.58-4.06-9.58-8.14
			c0-2.38,0.99-4.37,2.97-5.97c1.98-1.6,4.56-2.4,7.76-2.4c3.41,0,6.14,0.8,8.18,2.41c2.04,1.61,3.07,3.69,3.07,6.26h-7.17
			c0-1.03-0.33-1.87-0.99-2.54c-0.66-0.67-1.7-1.01-3.1-1.01c-1.21,0-2.14,0.27-2.81,0.82c-0.66,0.55-0.99,1.24-0.99,2.08
			c0,0.79,0.38,1.44,1.13,1.92c0.75,0.49,2.02,0.91,3.81,1.27c1.79,0.36,3.29,0.76,4.52,1.2c3.79,1.39,5.69,3.8,5.69,7.22
			c0,2.45-1.05,4.43-3.15,5.95c-2.1,1.51-4.82,2.27-8.14,2.27c-2.25,0-4.25-0.4-6-1.2s-3.12-1.9-4.11-3.3
			c-0.99-1.4-1.49-2.91-1.49-4.53h6.8c0.07,1.27,0.54,2.25,1.42,2.93c0.88,0.68,2.05,1.02,3.53,1.02c1.37,0,2.41-0.26,3.12-0.78
			C184.95,149.67,185.31,148.99,185.31,148.14z"/>
	</g>
	<g>
		<path class="st6" d="M30.47,154.57v-36.15h11.12c3.18,0,6.02,0.72,8.53,2.15s4.46,3.47,5.87,6.11s2.11,5.64,2.11,9v1.66
			c0,3.36-0.69,6.35-2.07,8.96c-1.38,2.62-3.33,4.64-5.85,6.08c-2.52,1.44-5.35,2.17-8.52,2.18H30.47z M37.92,124.45v24.13h3.6
			c2.91,0,5.14-0.95,6.68-2.85c1.54-1.9,2.32-4.63,2.36-8.17v-1.91c0-3.67-0.76-6.46-2.28-8.35c-1.52-1.89-3.75-2.84-6.68-2.84
			H37.92z"/>
		<path class="st6" d="M92.69,155.06c-3.94,0-7.15-1.21-9.62-3.62c-2.47-2.42-3.71-5.64-3.71-9.66v-0.7c0-2.7,0.52-5.11,1.56-7.24
			c1.04-2.13,2.52-3.76,4.43-4.92s4.09-1.73,6.54-1.73c3.67,0,6.57,1.16,8.68,3.48c2.11,2.32,3.17,5.6,3.17,9.86v2.93h-17.1
			c0.23,1.75,0.93,3.16,2.1,4.22c1.17,1.06,2.64,1.59,4.43,1.59c2.76,0,4.92-1,6.48-3l3.52,3.95c-1.08,1.52-2.53,2.71-4.37,3.56
			C96.96,154.64,94.93,155.06,92.69,155.06z M91.87,132.99c-1.42,0-2.58,0.48-3.46,1.45c-0.89,0.96-1.45,2.34-1.7,4.14h9.98v-0.57
			c-0.03-1.6-0.46-2.83-1.29-3.7S93.4,132.99,91.87,132.99z"/>
		<path class="st6" d="M134.83,145.8l4.99-18.1h7.5l-9.06,26.86h-6.85l-9.06-26.86h7.5L134.83,145.8z"/>
		<path class="st6" d="M182.31,147.14c0-0.88-0.43-1.57-1.3-2.07c-0.87-0.5-2.26-0.96-4.18-1.35c-6.39-1.34-9.58-4.06-9.58-8.14
			c0-2.38,0.99-4.37,2.97-5.97c1.98-1.6,4.56-2.4,7.76-2.4c3.41,0,6.14,0.8,8.18,2.41c2.04,1.61,3.07,3.69,3.07,6.26h-7.17
			c0-1.03-0.33-1.87-0.99-2.54c-0.66-0.67-1.7-1.01-3.1-1.01c-1.21,0-2.14,0.27-2.81,0.82c-0.66,0.55-0.99,1.24-0.99,2.08
			c0,0.79,0.38,1.44,1.13,1.92c0.75,0.49,2.02,0.91,3.81,1.27c1.79,0.36,3.29,0.76,4.52,1.2c3.79,1.39,5.69,3.8,5.69,7.22
			c0,2.45-1.05,4.43-3.15,5.95c-2.1,1.51-4.82,2.27-8.14,2.27c-2.25,0-4.25-0.4-6-1.2s-3.12-1.9-4.11-3.3
			c-0.99-1.4-1.49-2.91-1.49-4.53h6.8c0.07,1.27,0.54,2.25,1.42,2.93c0.88,0.68,2.05,1.02,3.53,1.02c1.37,0,2.41-0.26,3.12-0.78
			C181.95,148.67,182.31,147.99,182.31,147.14z"/>
	</g>
	<rect x="11.84" y="110.21" class="st2" width="198" height="55"/>
</g>
</svg>
